<svg xmlns="http://www.w3.org/2000/svg" width="170" height="161" viewBox="0 0 170 161" fill="none"><script xmlns="" id="eppiocemhmnlbhjplcgkofciiegomcon"/><script xmlns=""/><script xmlns=""/>
<g filter="url(#filter0_d_1_612)">
<path d="M133.988 59.9947C133.988 35.6982 114.372 16 90.1754 16C68.5571 16 50.617 31.7207 47.0227 52.3975L35.9988 60.0053L47.0227 67.6131C50.617 88.2899 68.5571 104.011 90.1754 104.011C114.372 104 133.988 84.3018 133.988 59.9947Z" fill="#7D963D"/>
</g>
<path d="M76.545 47.18C74.625 47.18 73.245 46.535 72.315 45.59L73.47 43.97C74.175 44.705 75.27 45.32 76.65 45.32C77.82 45.32 78.39 44.78 78.39 44.21C78.39 42.44 72.63 43.655 72.63 39.89C72.63 38.225 74.07 36.845 76.425 36.845C78.015 36.845 79.335 37.325 80.325 38.24L79.14 39.8C78.33 39.05 77.25 38.705 76.23 38.705C75.315 38.705 74.805 39.11 74.805 39.71C74.805 41.3 80.55 40.235 80.55 43.97C80.55 45.8 79.245 47.18 76.545 47.18ZM86.2487 47H84.1037V38.87H81.1787V36.995H89.1587V38.87H86.2487V47ZM97.6042 47H90.5242V36.995H97.6042V38.87H92.6542V40.985H97.4992V42.86H92.6542V45.125H97.6042V47ZM101.399 47H99.2693V36.995H103.949C106.124 36.995 107.309 38.465 107.309 40.22C107.309 41.96 106.109 43.445 103.949 43.445H101.399V47ZM103.664 41.57C104.504 41.57 105.134 41.045 105.134 40.22C105.134 39.38 104.504 38.87 103.664 38.87H101.399V41.57H103.664Z" fill="white"/>
<path d="M89.9157 82.4629C85.1714 82.4629 81.6614 80.65 79.7714 78.3357L82.6257 74.6714C84.4 76.5229 87.2157 77.6029 89.7229 77.6029C92.8471 77.6029 94.5829 76.2529 94.5829 74.3243C94.5829 72.28 93.0014 71.3543 89.4143 71.3543C88.3343 71.3543 86.5986 71.3929 86.2129 71.4314V66.4943C86.6757 66.5329 88.45 66.5329 89.4143 66.5329C92.2686 66.5329 94.1586 65.6843 94.1586 63.7943C94.1586 61.75 92.0757 60.7471 89.3757 60.7471C86.9071 60.7471 84.67 61.6729 82.8571 63.4086L80.1186 59.9757C82.2014 57.6229 85.4414 55.8871 89.9543 55.8871C95.9714 55.8871 99.6743 58.5871 99.6743 62.8686C99.6743 66.1086 96.8971 68.23 94.0429 68.7314C96.6657 69.0014 100.06 71.0457 100.06 74.9029C100.06 79.3386 96.0871 82.4629 89.9157 82.4629Z" fill="white"/>
<defs>
<filter id="filter0_d_1_612" x="-0.0012207" y="0" width="169.99" height="160.01" filterUnits="userSpaceOnUse" color-interpolation-filters="sRGB">
<feFlood flood-opacity="0" result="BackgroundImageFix"/>
<feColorMatrix in="SourceAlpha" type="matrix" values="0 0 0 0 0 0 0 0 0 0 0 0 0 0 0 0 0 0 127 0" result="hardAlpha"/>
<feMorphology radius="4" operator="erode" in="SourceAlpha" result="effect1_dropShadow_1_612"/>
<feOffset dy="20"/>
<feGaussianBlur stdDeviation="20"/>
<feComposite in2="hardAlpha" operator="out"/>
<feColorMatrix type="matrix" values="0 0 0 0 0.568627 0 0 0 0 0.619608 0 0 0 0 0.670588 0 0 0 0.25 0"/>
<feBlend mode="normal" in2="BackgroundImageFix" result="effect1_dropShadow_1_612"/>
<feBlend mode="normal" in="SourceGraphic" in2="effect1_dropShadow_1_612" result="shape"/>
</filter>
</defs>
</svg>